<svg xmlns="http://www.w3.org/2000/svg" viewBox="0 0 1807 1623" height="150" width="150">
    <path fill="#ed1d25"
          d="M224.143 627.021l-.054-8.735c.128-.787.129-1.013.095-1.242l-.176-56.987-.147-248.999c-.079-19.981-1.275-40.01-3.089-59.913-1.165-12.779-3.193-25.741-6.968-37.962-6.852-22.182-22.472-36.417-45.027-42.105-10.081-2.542-20.528-4.299-30.897-4.901-21.67-1.257-43.4-1.448-65.101-2.206-9.068-.317-18.125-.961-27.486-1.473v-90.1h790.381v94.013l-29.839-1.338c-1.331-.059-2.665-.07-3.998-.07-22.833-.004-45.702-.783-68.489.24-18.849.846-38.006-.743-56.494 4.762-13.039 3.882-26.047 7.928-36.083 17.782-9.787 9.61-15.333 21.751-17.558 34.944-2.533 15.021-3.526 30.301-5.221 45.465-3.665 32.808-1.727 65.731-1.898 98.601l-1.096 305.301L615 679h5.806l345.998-.266c18.782-.086 37.634-3.094 56.303-5.793 30.318-4.383 58.859-14.559 85.854-28.971 16.063-8.575 31.225-18.573 45.01-30.513 7.738-6.702 15.627-13.327 22.646-20.746 19.618-20.735 35.459-43.989 46.805-70.384 9.099-21.169 15.484-43.1 18.227-65.773 2.2-18.183 3.156-36.792 1.999-55.043-1.783-28.123-8.361-55.398-19.934-81.408-9.384-21.09-20.98-40.746-35.696-58.414-19.224-23.08-41.993-42.122-68.03-57.233-25.214-14.634-52.149-24.876-80.538-31.082-11.958-2.614-24.229-3.944-36.421-5.298-15.036-1.67-30.139-2.733-45.206-4.131-1.443-.134-2.838-.782-4.545-1.275v-89.4h809.347v91.87c-3.603-.387-7.118-1.123-10.623-1.077l-41.301.955c-8.774.25-17.578.27-26.308 1.056-21.151 1.906-42.598 2.09-62.62 10.85-14.878 6.51-25.44 17.151-31.653 32-5.025 12.008-7.303 24.688-8.149 37.663l-2.935 40.915c-.551 8.921-.993 17.866-.994 26.8V1300.3c.002 14.603-.183 29.281 1.153 43.792 1.92 20.862 3.939 41.854 8.155 62.33 4.84 23.506 20.223 38.606 43.426 45.678 15.3 4.664 30.909 7.069 46.814 7.891 7.929.41 15.864.883 23.8.962h46.126c3.438-.023 6.91-.407 10.299-1.009 4.033-.716 5.304 1.702 5.969 4.795.344 1.599.209 3.311.209 4.972l.007 82.884H948.994v-16.215l.033-27.499c.13-7.104.864-14.2.901-21.301.029-5.599-.768-11.198-.878-16.804-.116-5.893 2.866-8.633 8.8-8.789 11.269-.296 22.576-.166 33.795-1.088 37.463-3.08 74.016-10.525 109.118-24.28 24.551-9.62 48.26-20.955 70.431-35.335 17.673-11.463 34.027-24.486 49.296-39.085 27.896-26.671 49.008-57.931 64.716-92.929a314.03 314.03 0 0 0 23.692-79.421c2.318-14.561 3.722-29.287 5.008-43.986.851-9.725 1.373-19.558.974-29.298-.976-23.78-4.368-47.247-10.881-70.209-5.813-20.491-13.707-40.126-23.845-58.854-8.966-16.562-18.691-32.692-31.158-46.853-12.678-14.401-25.448-28.816-39.264-42.094-14.874-14.296-31.82-26.165-49.719-36.553-30.313-17.593-62.719-29.925-96.792-37.762-12.234-2.814-24.75-4.549-37.218-6.156-13.511-1.742-27.092-3.149-40.687-3.995-17.182-1.07-34.404-1.872-51.615-1.998l-117.499-.135c-14.104-.047-28.208-.948-42.311-.898l-155.31.947c-.977.006-1.953.093-3.58.176v5.446l.132 492.998c.024 17.472 1.431 34.982 3.022 52.399 1.323 14.488 3.037 29.039 6.058 43.248 4.095 19.259 14.45 34.926 32.729 43.443 8.722 4.065 18.474 6.872 28.023 7.99 15.069 1.765 30.359 1.702 45.561 2.27 12.1.452 24.21 1.003 36.314.954l64.811-.927 4.102-.003v92.647H45v-5.416l-.046-54c-.049-6.602-.943-13.203-.878-19.798.093-9.501 2.364-11.453 11.18-11.441l59.496-.123c20.814-.638 41.551-2.807 61.348-9.9 19.549-7.005 32.885-20.471 37.736-40.758 3.37-14.094 4.891-28.634 7.162-42.987 3.09-19.526 3.011-39.209 3.037-58.907l.921-623.904c.017-12.836-.603-25.673-.697-39.352.114-6.908-.001-12.974-.115-19.04z"/>
</svg>
