<svg version="1.1" id="Layer_1" xmlns="http://www.w3.org/2000/svg" xmlns:xlink="http://www.w3.org/1999/xlink" x="0px" y="0px"
	 width="100%" viewBox="0 0 1580 937" enable-background="new 0 0 1580 937" xml:space="preserve">
<path fill="none" opacity="1.000000" stroke="none"
	d="
M1581.000000,284.000000
	C1581.000000,502.333282 1581.000000,720.166565 1581.000000,937.999878
	C1054.333496,937.999939 527.666931,937.999939 1.000300,938.000000
	C1.000200,625.666870 1.000200,313.333710 1.000100,1.000425
	C527.666382,1.000284 1054.332764,1.000284 1580.999512,1.000142
	C1581.000000,95.166664 1581.000000,189.333328 1581.000000,284.000000
M20.352131,794.801697
	C20.528437,795.077820 20.849792,795.348450 20.860327,795.630798
	C21.552637,814.190186 26.565397,831.638916 33.789661,848.653870
	C43.173473,870.755066 57.744247,888.487488 77.402664,902.068970
	C101.374832,918.630676 128.691635,925.639038 157.144608,925.767151
	C281.474884,926.326843 405.809113,926.003784 530.141907,926.001099
	C530.975220,926.001099 531.915222,926.249878 532.619751,925.948486
	C534.092346,925.318542 536.112549,924.748352 536.739868,923.544861
	C547.299255,903.285645 558.508362,883.302185 567.789246,862.462952
	C573.424194,849.810303 577.342346,836.021545 579.598633,822.341797
	C581.788147,809.067261 580.112000,795.331299 576.545410,782.125122
	C573.166626,769.614197 572.878052,757.145508 577.142700,744.833069
	C579.408997,738.290039 582.264099,731.950867 585.054382,725.020691
	C584.206604,725.576355 583.711792,725.729980 583.501038,726.063232
	C571.828064,744.519592 555.846802,758.878723 538.005188,770.773682
	C509.650208,789.677856 479.159912,804.635193 446.595703,815.031982
	C441.983307,816.504578 436.859283,818.344055 432.320343,817.669739
	C422.704163,816.241150 413.096466,813.906311 403.904327,810.730286
	C395.944336,807.979980 390.817627,801.680542 393.840546,791.769043
	C395.495911,786.341431 396.312836,780.595764 396.941498,774.930603
	C398.173981,763.824341 398.844330,752.656006 400.058594,741.547363
	C401.194702,731.153992 405.548279,722.072327 412.916992,714.675171
	C420.763062,706.798767 429.105835,699.415161 436.904785,691.494507
	C442.570343,685.740540 448.293854,679.880432 452.937988,673.321655
	C460.103333,663.202087 466.216431,652.344727 473.056335,641.985474
	C479.808746,631.758789 486.508636,621.453735 493.971375,611.752136
	C501.316956,602.202881 512.429565,597.157593 522.087830,590.379211
	C531.182800,583.996094 540.163269,577.417725 548.822815,570.462891
	C552.101318,567.829773 554.187195,564.222168 551.766479,559.213318
	C540.737244,536.392151 530.483948,513.185791 519.069946,490.562897
	C494.881439,442.620667 470.038849,395.008911 445.678345,347.152802
	C434.692841,325.571716 424.218048,303.730591 413.513580,282.006439
	C401.566956,257.761414 389.644440,233.504501 377.671417,209.272522
	C364.535065,182.685974 351.440277,156.078323 338.170105,129.558548
	C319.172882,91.593651 300.042480,53.695377 280.915222,15.795762
	C280.230347,14.438706 278.974579,13.369761 277.057983,12.030285
	C239.713593,12.075603 202.369186,12.120919 164.123154,12.027532
	C157.766586,12.680043 151.405457,13.291404 145.054276,13.992659
	C124.739601,16.235664 105.461632,22.329834 87.360855,31.479658
	C66.697243,41.924980 49.338436,56.515808 37.621971,76.939972
	C29.172365,91.669342 23.611456,107.404762 21.983374,124.417366
	C21.453966,129.949402 20.773302,135.466949 20.021320,141.922043
	C20.014475,358.283966 20.007401,574.645874 20.007410,791.007812
	C20.007410,792.003784 20.107847,792.999817 20.352131,794.801697
M391.270630,14.707093
	C397.172729,31.263844 403.226501,47.768440 408.943329,64.388924
	C418.803009,93.053818 428.547333,121.759270 438.167633,150.505386
	C450.525940,187.432770 462.780670,224.395172 474.956848,261.383026
	C487.386841,299.141907 499.436981,337.027283 512.085388,374.712311
	C522.556091,405.908936 533.791809,436.847992 544.426941,467.990540
	C551.074768,487.457092 557.726440,506.911133 568.047546,524.803711
	C570.967712,529.866089 574.772400,534.482361 578.599487,538.935364
	C581.237122,542.004517 584.387695,541.444275 586.926941,538.309448
	C597.220703,525.600891 609.498535,515.260559 624.180969,508.037231
	C636.198792,502.124817 648.499329,496.789978 660.614746,491.072296
	C676.716309,483.473419 692.683838,475.584229 708.894409,468.228363
	C712.005310,466.816742 713.990784,465.560760 715.128296,462.196899
	C720.037781,447.677979 727.085083,435.137726 744.447571,432.998840
	C749.996338,432.315277 753.050598,428.458130 754.943176,423.692413
	C759.456238,412.327850 758.926147,400.177490 759.915649,388.306885
	C760.896790,376.535339 763.477356,365.472534 770.610229,355.803253
	C773.795105,351.485809 776.919800,347.123871 780.349304,342.400024
	C779.053711,341.826324 778.090759,341.322723 777.076843,340.962402
	C759.953674,334.877350 743.270996,327.830841 727.933167,317.959198
	C712.829651,308.238342 699.552124,296.631866 690.914734,280.524109
	C683.162048,266.066223 680.613586,250.831131 682.820007,234.408920
	C684.991760,218.245026 690.125427,203.332367 698.197571,189.321823
	C708.842957,170.845123 722.894592,155.312576 738.982239,141.387329
	C752.680359,129.530426 767.551331,119.546829 783.409729,110.908409
	C804.609375,99.360474 826.937561,90.766350 850.446167,85.305611
	C856.635986,83.867783 862.937744,82.911705 869.188049,81.734406
	C864.836914,86.349579 860.335144,90.088516 855.703491,93.658875
	C832.081909,111.867989 808.164795,129.781219 788.829346,152.782333
	C779.114197,164.339279 771.180725,176.949707 774.052856,193.163010
	C775.929871,203.758606 779.917847,213.475739 787.166260,221.736969
	C797.397095,233.397278 811.336426,238.420197 825.393372,242.826279
	C837.649170,246.667816 850.271667,249.369720 862.791748,252.322723
	C867.665649,253.472290 873.265808,255.726898 877.563477,254.379272
	C892.608398,249.661591 908.069824,247.386414 923.519470,247.284637
	C950.708740,247.105530 978.001282,245.034958 1005.114441,249.009094
	C1024.080811,251.789108 1041.857056,257.957184 1057.934570,268.494720
	C1065.060303,273.165100 1071.814575,278.402222 1079.437256,283.885468
	C1077.339111,276.587189 1075.458984,270.047119 1073.522339,263.310394
	C1074.330444,262.942444 1075.296387,262.204254 1076.337524,262.075531
	C1085.127319,260.988770 1093.957275,260.200104 1102.724121,258.960693
	C1115.829224,257.107971 1129.042236,255.632019 1141.933228,252.757629
	C1155.702026,249.687515 1168.840210,244.807419 1177.896851,232.690277
	C1188.983643,217.856903 1191.859375,202.471664 1182.906494,185.486801
	C1175.970581,172.328110 1166.753174,160.930115 1156.651001,150.218796
	C1144.380371,137.208115 1131.778809,124.509628 1119.689453,111.304443
	C1119.811157,111.179276 1119.932983,111.054108 1120.860229,111.000908
	C1121.688965,111.044563 1122.575684,110.909775 1123.337769,111.158104
	C1140.753784,116.833527 1157.715088,123.433662 1173.609253,132.798080
	C1189.690796,142.272842 1204.655518,153.256424 1217.589966,166.509308
	C1226.912964,176.061813 1235.084961,186.982681 1242.417725,198.179092
	C1255.714478,218.482269 1262.779419,240.677658 1260.107178,265.496460
	C1258.403564,281.318481 1252.184326,294.751923 1241.334229,306.073730
	C1229.333984,318.595551 1214.704956,327.035400 1198.567261,333.257080
	C1181.594482,339.800629 1164.248657,344.632233 1146.212158,347.008820
	C1137.858643,348.109558 1129.523560,349.351898 1120.926270,350.565887
	C1122.250000,354.009186 1123.655518,357.130493 1124.665283,360.374939
	C1133.780273,389.658539 1137.947510,419.839081 1138.718262,450.320129
	C1139.177612,468.485443 1142.864258,485.689880 1148.029541,502.820068
	C1152.514282,517.693176 1159.156250,531.220093 1171.630249,541.221069
	C1174.214355,543.292847 1176.488770,545.789307 1178.715332,548.261780
	C1188.450806,559.071716 1193.249634,570.612061 1186.557495,585.307434
	C1182.553833,594.099182 1177.438599,601.924988 1171.249634,609.085327
	C1166.733154,614.310669 1161.379639,618.962769 1154.156494,619.980774
	C1141.032593,621.830383 1127.897217,624.197388 1114.699707,624.749878
	C1102.550903,625.258423 1090.287354,623.970093 1078.124512,622.902588
	C1068.359863,622.045471 1058.652100,620.451843 1048.955078,618.951538
	C1044.155273,618.208923 1039.437012,616.940186 1033.933350,615.747253
	C1035.754639,618.698669 1037.140015,620.721191 1038.302734,622.864502
	C1045.535522,636.196655 1052.201050,649.706604 1050.996704,665.555481
	C1050.634888,670.317932 1050.618042,675.126831 1049.933594,679.840393
	C1048.556396,689.327026 1048.598022,699.421997 1042.661255,707.500183
	C1032.578979,721.219421 1021.967896,734.552612 1011.474854,747.966553
	C1004.122437,757.365723 995.788696,765.998535 990.880554,777.187683
	C985.251831,790.019897 979.574402,802.865479 973.116760,815.288757
	C967.669434,825.768250 959.326843,833.308289 947.360535,836.459595
	C943.400269,837.502441 939.607727,839.900330 936.249451,842.372681
	C927.081848,849.121826 926.098999,859.734680 926.275452,869.509033
	C926.605774,887.813171 921.368835,905.156311 919.035034,923.859863
	C919.540466,927.852539 922.645142,925.908813 924.443970,925.909912
	C1086.629028,926.007080 1248.814087,926.000549 1410.999146,925.993225
	C1412.660889,925.993164 1414.322754,925.890015 1416.885620,925.972290
	C1422.482056,925.633118 1428.235352,926.007263 1433.644897,924.817993
	C1448.568359,921.537292 1463.706055,918.642944 1478.102783,913.688904
	C1501.125122,905.766785 1520.986084,892.570374 1536.331299,873.208923
	C1553.237671,851.878174 1561.738892,827.122314 1561.788452,800.426758
	C1562.182129,588.169861 1561.949829,375.911835 1562.091919,163.654282
	C1562.104858,144.295990 1560.820312,125.358612 1555.199951,106.638184
	C1548.955444,85.838272 1538.734375,67.493828 1524.081543,51.717480
	C1512.798340,39.569176 1499.025757,30.738455 1483.714722,24.251415
	C1463.006470,15.477663 1441.364868,11.991475 1418.079956,12.030099
	C1417.246826,12.020223 1416.413574,12.001693 1415.580444,12.001690
	C1075.759644,12.000291 735.938721,12.000061 396.117889,12.003383
	C394.786346,12.003395 393.422699,11.900673 392.141235,12.167945
	C391.708435,12.258214 391.483856,13.346725 391.270630,14.707093
z"/>
<path fill="currentColor" opacity="1.000000" stroke="none"
	d="
M1419.012817,12.164885
	C1441.364868,11.991475 1463.006470,15.477663 1483.714722,24.251415
	C1499.025757,30.738455 1512.798340,39.569176 1524.081543,51.717480
	C1538.734375,67.493828 1548.955444,85.838272 1555.199951,106.638184
	C1560.820312,125.358612 1562.104858,144.295990 1562.091919,163.654282
	C1561.949829,375.911835 1562.182129,588.169861 1561.788452,800.426758
	C1561.738892,827.122314 1553.237671,851.878174 1536.331299,873.208923
	C1520.986084,892.570374 1501.125122,905.766785 1478.102783,913.688904
	C1463.706055,918.642944 1448.568359,921.537292 1433.644897,924.817993
	C1428.235352,926.007263 1422.482056,925.633118 1416.054932,925.749146
	C1412.577637,925.350708 1409.930908,925.022583 1407.284302,925.021973
	C1298.520508,924.996216 1189.756714,925.000061 1080.992920,925.000000
	C1029.692383,924.999939 978.391846,925.029602 927.091614,924.914124
	C924.447205,924.908203 921.805542,923.660095 919.162598,922.990356
	C921.368835,905.156311 926.605774,887.813171 926.275452,869.509033
	C926.098999,859.734680 927.081848,849.121826 936.249451,842.372681
	C939.607727,839.900330 943.400269,837.502441 947.360535,836.459595
	C959.326843,833.308289 967.669434,825.768250 973.116760,815.288757
	C979.574402,802.865479 985.251831,790.019897 990.880554,777.187683
	C995.788696,765.998535 1004.122437,757.365723 1011.474854,747.966553
	C1021.967896,734.552612 1032.578979,721.219421 1042.661255,707.500183
	C1048.598022,699.421997 1048.556396,689.327026 1049.933594,679.840393
	C1050.618042,675.126831 1050.634888,670.317932 1050.996704,665.555481
	C1052.201050,649.706604 1045.535522,636.196655 1038.302734,622.864502
	C1037.140015,620.721191 1035.754639,618.698669 1033.933350,615.747253
	C1039.437012,616.940186 1044.155273,618.208923 1048.955078,618.951538
	C1058.652100,620.451843 1068.359863,622.045471 1078.124512,622.902588
	C1090.287354,623.970093 1102.550903,625.258423 1114.699707,624.749878
	C1127.897217,624.197388 1141.032593,621.830383 1154.156494,619.980774
	C1161.379639,618.962769 1166.733154,614.310669 1171.249634,609.085327
	C1177.438599,601.924988 1182.553833,594.099182 1186.557495,585.307434
	C1193.249634,570.612061 1188.450806,559.071716 1178.715332,548.261780
	C1176.488770,545.789307 1174.214355,543.292847 1171.630249,541.221069
	C1159.156250,531.220093 1152.514282,517.693176 1148.029541,502.820068
	C1142.864258,485.689880 1139.177612,468.485443 1138.718262,450.320129
	C1137.947510,419.839081 1133.780273,389.658539 1124.665283,360.374939
	C1123.655518,357.130493 1122.250000,354.009186 1120.926270,350.565887
	C1129.523560,349.351898 1137.858643,348.109558 1146.212158,347.008820
	C1164.248657,344.632233 1181.594482,339.800629 1198.567261,333.257080
	C1214.704956,327.035400 1229.333984,318.595551 1241.334229,306.073730
	C1252.184326,294.751923 1258.403564,281.318481 1260.107178,265.496460
	C1262.779419,240.677658 1255.714478,218.482269 1242.417725,198.179092
	C1235.084961,186.982681 1226.912964,176.061813 1217.589966,166.509308
	C1204.655518,153.256424 1189.690796,142.272842 1173.609253,132.798080
	C1157.715088,123.433662 1140.753784,116.833527 1123.337769,111.158104
	C1122.575684,110.909775 1121.688965,111.044563 1120.343750,110.702316
	C1119.388184,110.353401 1118.949097,110.303078 1118.510010,110.252747
	C1118.780029,110.727211 1119.050171,111.201668 1119.320312,111.676117
	C1131.778809,124.509628 1144.380371,137.208115 1156.651001,150.218796
	C1166.753174,160.930115 1175.970581,172.328110 1182.906494,185.486801
	C1191.859375,202.471664 1188.983643,217.856903 1177.896851,232.690277
	C1168.840210,244.807419 1155.702026,249.687515 1141.933228,252.757629
	C1129.042236,255.632019 1115.829224,257.107971 1102.724121,258.960693
	C1093.957275,260.200104 1085.127319,260.988770 1076.337524,262.075531
	C1075.296387,262.204254 1074.330444,262.942444 1073.522339,263.310394
	C1075.458984,270.047119 1077.339111,276.587189 1079.437256,283.885468
	C1071.814575,278.402222 1065.060303,273.165100 1057.934570,268.494720
	C1041.857056,257.957184 1024.080811,251.789108 1005.114441,249.009094
	C978.001282,245.034958 950.708740,247.105530 923.519470,247.284637
	C908.069824,247.386414 892.608398,249.661591 877.563477,254.379272
	C873.265808,255.726898 867.665649,253.472290 862.791748,252.322723
	C850.271667,249.369720 837.649170,246.667816 825.393372,242.826279
	C811.336426,238.420197 797.397095,233.397278 787.166260,221.736969
	C779.917847,213.475739 775.929871,203.758606 774.052856,193.163010
	C771.180725,176.949707 779.114197,164.339279 788.829346,152.782333
	C808.164795,129.781219 832.081909,111.867989 855.703491,93.658875
	C860.335144,90.088516 864.836914,86.349579 869.188049,81.734406
	C862.937744,82.911705 856.635986,83.867783 850.446167,85.305611
	C826.937561,90.766350 804.609375,99.360474 783.409729,110.908409
	C767.551331,119.546829 752.680359,129.530426 738.982239,141.387329
	C722.894592,155.312576 708.842957,170.845123 698.197571,189.321823
	C690.125427,203.332367 684.991760,218.245026 682.820007,234.408920
	C680.613586,250.831131 683.162048,266.066223 690.914734,280.524109
	C699.552124,296.631866 712.829651,308.238342 727.933167,317.959198
	C743.270996,327.830841 759.953674,334.877350 777.076843,340.962402
	C778.090759,341.322723 779.053711,341.826324 780.349304,342.400024
	C776.919800,347.123871 773.795105,351.485809 770.610229,355.803253
	C763.477356,365.472534 760.896790,376.535339 759.915649,388.306885
	C758.926147,400.177490 759.456238,412.327850 754.943176,423.692413
	C753.050598,428.458130 749.996338,432.315277 744.447571,432.998840
	C727.085083,435.137726 720.037781,447.677979 715.128296,462.196899
	C713.990784,465.560760 712.005310,466.816742 708.894409,468.228363
	C692.683838,475.584229 676.716309,483.473419 660.614746,491.072296
	C648.499329,496.789978 636.198792,502.124817 624.180969,508.037231
	C609.498535,515.260559 597.220703,525.600891 586.926941,538.309448
	C584.387695,541.444275 581.237122,542.004517 578.599487,538.935364
	C574.772400,534.482361 570.967712,529.866089 568.047546,524.803711
	C557.726440,506.911133 551.074768,487.457092 544.426941,467.990540
	C533.791809,436.847992 522.556091,405.908936 512.085388,374.712311
	C499.436981,337.027283 487.386841,299.141907 474.956848,261.383026
	C462.780670,224.395172 450.525940,187.432770 438.167633,150.505386
	C428.547333,121.759270 418.803009,93.053818 408.943329,64.388924
	C403.226501,47.768440 397.172729,31.263844 391.594604,14.194002
	C395.058777,13.453871 398.198944,13.028252 401.339172,13.027971
	C737.436340,12.997924 1073.533569,13.002039 1409.630737,12.965227
	C1412.758057,12.964885 1415.885498,12.443183 1419.012817,12.164885
M1335.961670,717.071411
	C1323.471191,720.806946 1312.288818,726.547119 1303.664673,736.769409
	C1293.934082,748.303284 1290.211426,761.715759 1292.359375,776.224487
	C1294.446411,790.321533 1302.020386,801.710022 1313.703247,810.185486
	C1324.388794,817.937500 1336.597168,821.793640 1349.481079,821.707703
	C1359.523071,821.640808 1369.466919,819.071533 1378.486450,813.874390
	C1394.154053,804.846497 1403.810303,791.437500 1405.815430,773.622742
	C1408.447876,750.235901 1392.858154,727.849060 1370.212280,719.901306
	C1359.235596,716.048889 1348.210815,715.006409 1335.961670,717.071411
z"/>
<path fill="currentColor" opacity="1.000000" stroke="none"
	d="
M20.161819,140.991119
	C20.773302,135.466949 21.453966,129.949402 21.983374,124.417366
	C23.611456,107.404762 29.172365,91.669342 37.621971,76.939972
	C49.338436,56.515808 66.697243,41.924980 87.360855,31.479658
	C105.461632,22.329834 124.739601,16.235664 145.054276,13.992659
	C151.405457,13.291404 157.766586,12.680043 164.951523,12.255225
	C167.260269,12.653869 168.740524,12.972821 170.221039,12.974051
	C204.349960,13.002392 238.478928,13.008718 272.607788,12.961040
	C274.400513,12.958536 276.192535,12.443163 277.984863,12.166550
	C278.974579,13.369761 280.230347,14.438706 280.915222,15.795762
	C300.042480,53.695377 319.172882,91.593651 338.170105,129.558548
	C351.440277,156.078323 364.535065,182.685974 377.671417,209.272522
	C389.644440,233.504501 401.566956,257.761414 413.513580,282.006439
	C424.218048,303.730591 434.692841,325.571716 445.678345,347.152802
	C470.038849,395.008911 494.881439,442.620667 519.069946,490.562897
	C530.483948,513.185791 540.737244,536.392151 551.766479,559.213318
	C554.187195,564.222168 552.101318,567.829773 548.822815,570.462891
	C540.163269,577.417725 531.182800,583.996094 522.087830,590.379211
	C512.429565,597.157593 501.316956,602.202881 493.971375,611.752136
	C486.508636,621.453735 479.808746,631.758789 473.056335,641.985474
	C466.216431,652.344727 460.103333,663.202087 452.937988,673.321655
	C448.293854,679.880432 442.570343,685.740540 436.904785,691.494507
	C429.105835,699.415161 420.763062,706.798767 412.916992,714.675171
	C405.548279,722.072327 401.194702,731.153992 400.058594,741.547363
	C398.844330,752.656006 398.173981,763.824341 396.941498,774.930603
	C396.312836,780.595764 395.495911,786.341431 393.840546,791.769043
	C390.817627,801.680542 395.944336,807.979980 403.904327,810.730286
	C413.096466,813.906311 422.704163,816.241150 432.320343,817.669739
	C436.859283,818.344055 441.983307,816.504578 446.595703,815.031982
	C479.159912,804.635193 509.650208,789.677856 538.005188,770.773682
	C555.846802,758.878723 571.828064,744.519592 583.501038,726.063232
	C583.711792,725.729980 584.206604,725.576355 585.054382,725.020691
	C582.264099,731.950867 579.408997,738.290039 577.142700,744.833069
	C572.878052,757.145508 573.166626,769.614197 576.545410,782.125122
	C580.112000,795.331299 581.788147,809.067261 579.598633,822.341797
	C577.342346,836.021545 573.424194,849.810303 567.789246,862.462952
	C558.508362,883.302185 547.299255,903.285645 536.739868,923.544861
	C536.112549,924.748352 534.092346,925.318542 532.619751,925.948486
	C531.915222,926.249878 530.975220,926.001099 530.141907,926.001099
	C405.809113,926.003784 281.474884,926.326843 157.144608,925.767151
	C128.691635,925.639038 101.374832,918.630676 77.402664,902.068970
	C57.744247,888.487488 43.173473,870.755066 33.789661,848.653870
	C26.565397,831.638916 21.552637,814.190186 20.860327,795.630798
	C20.849792,795.348450 20.528437,795.077820 20.424477,794.022827
	C20.664326,791.261414 20.978331,789.278748 20.978540,787.296143
	C21.001060,573.985596 21.002480,360.675110 20.965694,147.364578
	C20.965328,145.240051 20.441351,143.115601 20.161819,140.991119
z"/>
<path fill="#F10328" opacity="1.000000" stroke="none"
	d="
M1418.546387,12.097493
	C1415.885498,12.443183 1412.758057,12.964885 1409.630737,12.965227
	C1073.533569,13.002039 737.436340,12.997924 401.339172,13.027971
	C398.198944,13.028252 395.058777,13.453871 391.541351,13.829970
	C391.483856,13.346725 391.708435,12.258214 392.141235,12.167945
	C393.422699,11.900673 394.786346,12.003395 396.117889,12.003383
	C735.938721,12.000061 1075.759644,12.000291 1415.580444,12.001690
	C1416.413574,12.001693 1417.246826,12.020223 1418.546387,12.097493
z"/>
<path fill="#F70030" opacity="1.000000" stroke="none"
	d="
M20.091570,141.456573
	C20.441351,143.115601 20.965328,145.240051 20.965694,147.364578
	C21.002480,360.675110 21.001060,573.985596 20.978540,787.296143
	C20.978331,789.278748 20.664326,791.261414 20.329102,793.619873
	C20.107847,792.999817 20.007410,792.003784 20.007410,791.007812
	C20.007401,574.645874 20.014475,358.283966 20.091570,141.456573
z"/>
<path fill="#F10926" opacity="1.000000" stroke="none"
	d="
M919.098816,923.425110
	C921.805542,923.660095 924.447205,924.908203 927.091614,924.914124
	C978.391846,925.029602 1029.692383,924.999939 1080.992920,925.000000
	C1189.756714,925.000061 1298.520508,924.996216 1407.284302,925.021973
	C1409.930908,925.022583 1412.577637,925.350708 1415.604370,925.680542
	C1414.322754,925.890015 1412.660889,925.993164 1410.999146,925.993225
	C1248.814087,926.000549 1086.629028,926.007080 924.443970,925.909912
	C922.645142,925.908813 919.540466,927.852539 919.098816,923.425110
z"/>
<path fill="#F10328" opacity="1.000000" stroke="none"
	d="
M277.521423,12.098419
	C276.192535,12.443163 274.400513,12.958536 272.607788,12.961040
	C238.478928,13.008718 204.349960,13.002392 170.221039,12.974051
	C168.740524,12.972821 167.260269,12.653869 165.402344,12.324577
	C202.369186,12.120919 239.713593,12.075603 277.521423,12.098419
z"/>
<path fill="none" opacity="1.000000" stroke="none"
	d="
M1336.393066,717.044189
	C1348.210815,715.006409 1359.235596,716.048889 1370.212280,719.901306
	C1392.858154,727.849060 1408.447876,750.235901 1405.815430,773.622742
	C1403.810303,791.437500 1394.154053,804.846497 1378.486450,813.874390
	C1369.466919,819.071533 1359.523071,821.640808 1349.481079,821.707703
	C1336.597168,821.793640 1324.388794,817.937500 1313.703247,810.185486
	C1302.020386,801.710022 1294.446411,790.321533 1292.359375,776.224487
	C1290.211426,761.715759 1293.934082,748.303284 1303.664673,736.769409
	C1312.288818,726.547119 1323.471191,720.806946 1336.393066,717.044189
z"/>
<path fill="none" opacity="1.000000" stroke="none"
	d="
M1119.504883,111.490280
	C1119.050171,111.201668 1118.780029,110.727211 1118.510010,110.252747
	C1118.949097,110.303078 1119.388184,110.353401 1119.941040,110.666336
	C1119.932983,111.054108 1119.811157,111.179276 1119.504883,111.490280
z"/>
</svg>
