
<svg version="1.1" id="Layer_1" xmlns="http://www.w3.org/2000/svg" xmlns:xlink="http://www.w3.org/1999/xlink" x="0px" y="0px"
	 width="100%" viewBox="0 0 1560 1430" enable-background="new 0 0 1560 1430" xml:space="preserve">
<path fill="none" opacity="1.000000" stroke="none" 
	d="
M893.000000,1431.000000 
	C595.333374,1431.000000 298.166779,1431.000000 1.000120,1431.000000 
	C1.000080,954.333496 1.000080,477.666931 1.000040,1.000311 
	C520.999756,1.000208 1040.999512,1.000208 1560.999512,1.000104 
	C1560.999634,477.666351 1560.999634,954.332703 1560.999756,1430.999512 
	C1338.500000,1431.000000 1116.000000,1431.000000 893.000000,1431.000000 
M469.293304,457.308716 
	C469.165985,457.180939 469.038666,457.053192 468.980713,456.074707 
	C469.718170,444.396851 475.076904,434.336426 480.623718,424.495941 
	C474.200684,423.971375 468.278656,423.498383 462.358612,423.001923 
	C450.558746,422.012482 438.726807,421.297699 426.969086,419.940979 
	C412.018188,418.215790 397.008911,416.594360 382.238525,413.798981 
	C358.719635,409.347931 335.447266,403.779205 312.885345,395.488495 
	C294.430298,388.706909 276.551056,380.903015 260.072540,370.037628 
	C242.687637,358.574646 227.343842,344.973297 217.373077,326.506775 
	C207.644562,308.488831 204.351181,289.126892 206.788239,268.496887 
	C209.186478,248.195496 215.862122,229.568954 224.805038,211.424515 
	C232.780594,195.242798 242.419220,180.184387 252.749466,165.430511 
	C268.722687,142.617264 286.995483,121.773628 306.043518,101.589951 
	C318.044128,88.873894 330.662537,76.737556 343.103058,64.441597 
	C348.280731,59.324074 353.631775,54.373184 359.053101,49.512814 
	C370.205963,39.514015 381.459198,29.627207 393.099548,19.320444 
	C393.210876,18.952087 393.322235,18.583731 393.433563,18.215376 
	C392.931641,18.449989 392.429688,18.684603 391.151886,18.989014 
	C369.262024,28.276325 347.154663,37.089821 325.553711,47.006443 
	C309.357605,54.441795 293.595459,62.907936 278.036255,71.622459 
	C260.518921,81.433708 243.079285,91.477356 226.282425,102.455093 
	C209.347260,113.523239 192.801636,125.300751 176.894882,137.797852 
	C160.358002,150.790009 144.120422,164.320770 128.992706,178.903152 
	C114.748940,192.633469 101.880226,207.830139 88.849220,222.767838 
	C74.832436,238.835556 63.392254,256.785767 53.288654,275.496918 
	C40.917690,298.407135 30.800179,322.322510 25.644823,347.970642 
	C22.844402,361.902924 19.992357,376.002045 19.264254,390.134155 
	C18.014940,414.382751 18.434212,438.737213 24.063557,462.593414 
	C26.565592,473.196594 28.571537,484.148346 32.869350,494.044281 
	C40.035988,510.545868 51.868931,524.214478 63.983936,537.334656 
	C81.142967,555.917419 100.690758,571.737366 121.952454,585.478760 
	C141.653473,598.211426 162.383392,608.967896 184.028427,617.889832 
	C207.418961,627.531311 231.490082,635.297607 256.249023,640.494202 
	C277.171021,644.885498 298.253265,648.634644 319.390442,651.837036 
	C333.502808,653.975037 347.811554,655.238647 362.076691,655.834717 
	C378.147095,656.506348 394.267181,655.989319 410.254852,655.989319 
	C407.883911,645.408997 406.564301,634.119507 407.730255,622.258301 
	C409.229736,607.004211 412.050629,592.145508 416.805176,577.695496 
	C421.177460,564.407104 426.165955,551.299683 431.426025,538.332886 
	C434.844177,529.906677 439.235443,521.875244 442.890656,514.289734 
	C439.632477,533.078979 435.744507,552.251465 433.128540,571.595886 
	C430.970947,587.550781 429.954315,603.690918 429.142761,619.784851 
	C428.685608,628.850952 429.389313,638.010437 430.075134,647.089783 
	C430.816681,656.907104 431.547485,666.790833 433.337189,676.450317 
	C437.878510,700.961121 445.160919,724.600037 458.047607,746.195496 
	C465.409729,758.533020 473.794708,770.073547 485.519897,781.093079 
	C481.510986,768.016479 480.420837,756.279236 483.941711,745.017761 
	C497.617035,754.452393 510.786804,764.169006 524.578308,772.903870 
	C544.759888,785.685852 566.350952,795.700623 588.737671,804.129639 
	C605.973389,810.619141 623.192078,817.326965 639.822205,825.197388 
	C653.114014,831.487915 664.170471,841.190979 673.521118,852.798340 
	C681.768982,863.036804 687.091492,874.739197 691.833374,886.761108 
	C694.338928,893.113525 696.076477,899.768860 698.448242,907.186279 
	C694.835510,904.615906 692.161194,902.757446 689.533020,900.835876 
	C675.312134,890.438293 659.785034,882.282227 643.439026,876.022156 
	C627.651917,869.976257 611.587585,864.298584 595.200378,860.266357 
	C575.240051,855.354858 555.029175,851.720093 537.016113,841.040100 
	C521.794922,832.015442 508.821014,820.820068 500.941895,804.569946 
	C498.761414,800.072937 496.681915,795.526978 493.990662,789.800354 
	C485.955841,796.003479 478.001160,801.453247 470.860901,807.816833 
	C459.749603,817.719360 451.067688,829.774353 443.384674,842.439270 
	C439.504059,848.836182 434.397644,855.018127 435.960205,863.520996 
	C436.876404,868.506653 437.186676,873.602478 438.068146,878.596008 
	C441.301971,896.915039 444.645905,915.214844 447.975983,933.516785 
	C453.817657,965.622253 461.697327,997.197571 472.499786,1028.019287 
	C478.134857,1044.097290 484.958923,1059.582031 493.961182,1074.113159 
	C500.002808,1083.865112 509.069672,1090.416870 517.291809,1097.971680 
	C531.026855,1110.592041 542.520081,1125.219971 553.186035,1140.501465 
	C568.118835,1161.896484 580.293762,1184.803589 590.301025,1208.843872 
	C595.178711,1220.561646 599.974304,1232.392578 603.602478,1244.532349 
	C608.728455,1261.683838 613.254822,1279.056030 617.076599,1296.543823 
	C620.697937,1313.114624 623.163879,1329.942261 625.968506,1346.685181 
	C627.156433,1353.777100 627.162231,1361.181152 634.210144,1365.788574 
	C645.951965,1373.464111 656.997009,1382.467896 669.424805,1388.761230 
	C683.006775,1395.638794 697.592590,1400.818237 712.165039,1405.384155 
	C730.517456,1411.134277 749.627502,1413.544556 768.860962,1413.898682 
	C780.621521,1414.115112 792.457642,1413.940796 804.155518,1412.836548 
	C816.652649,1411.656738 829.100830,1409.558716 841.437927,1407.175659 
	C860.500183,1403.493896 878.317627,1396.076660 895.261292,1386.820312 
	C908.217712,1379.742065 920.722473,1371.779663 930.775024,1360.657349 
	C931.796204,1359.527588 932.672119,1357.968750 932.916077,1356.493408 
	C933.504395,1352.936035 933.405823,1349.259277 934.063599,1345.719727 
	C937.969666,1324.701050 941.431274,1303.576416 946.145386,1282.736938 
	C953.174255,1251.664062 963.700256,1221.660400 977.138000,1192.775146 
	C987.431458,1170.648682 999.399048,1149.327393 1014.627441,1130.231079 
	C1025.053467,1117.157104 1036.180420,1104.307739 1048.752441,1093.381226 
	C1059.593506,1083.959229 1067.593018,1073.122803 1074.008545,1060.751709 
	C1086.474487,1036.713989 1094.390503,1010.957520 1100.830200,984.840454 
	C1106.679443,961.118286 1111.266357,937.073853 1115.987793,913.088440 
	C1119.046021,897.552124 1121.593628,881.902222 1123.843140,866.227539 
	C1124.566772,861.186340 1125.584961,856.059998 1121.728027,850.902527 
	C1113.923340,840.465881 1107.861816,828.669617 1099.629639,818.623718 
	C1090.364258,807.317017 1079.529175,797.283752 1065.472534,790.826477 
	C1064.878052,792.506714 1064.351929,793.994934 1063.824951,795.482849 
	C1060.328491,805.356018 1054.697510,813.995789 1047.739624,821.666443 
	C1031.043457,840.073120 1009.467407,850.255737 985.824768,855.737793 
	C966.600525,860.195435 947.176697,863.875305 928.821838,871.216797 
	C915.811829,876.420471 903.065308,882.421509 890.645508,888.916382 
	C881.287415,893.810181 872.633728,900.050964 863.293701,905.308228 
	C863.167786,905.181885 863.041809,905.055603 862.988098,904.146301 
	C865.309875,897.368530 867.587769,890.575439 869.961121,883.815796 
	C879.669617,856.164001 897.944214,835.778564 924.118958,823.209839 
	C940.388123,815.397705 957.581238,809.467590 974.495544,803.051086 
	C998.567810,793.919312 1021.570312,782.688843 1042.998901,768.426636 
	C1054.268188,760.926086 1065.067505,752.719360 1076.296265,744.675903 
	C1080.187622,756.243103 1078.567139,768.030090 1075.011719,780.299072 
	C1076.242798,779.743225 1076.758179,779.643127 1077.084351,779.339661 
	C1078.303345,778.205078 1079.543457,777.075500 1080.627808,775.816711 
	C1092.421265,762.125244 1102.405273,747.324890 1110.135132,730.877563 
	C1123.520142,702.397705 1129.146973,672.127441 1130.778320,641.139771 
	C1131.925293,619.352844 1131.614380,597.428406 1128.008301,575.746887 
	C1125.785034,562.378845 1123.654053,548.994080 1121.265869,535.655518 
	C1120.076538,529.012695 1118.402222,522.456787 1116.628174,514.415161 
	C1117.946655,516.328735 1118.473267,516.946777 1118.841064,517.648071 
	C1130.545410,539.963562 1140.213989,563.168335 1146.537109,587.531250 
	C1149.845703,600.279358 1151.726685,613.545959 1152.734131,626.694763 
	C1153.489868,636.558105 1151.822632,646.607117 1151.220825,656.799500 
	C1151.209473,656.798340 1152.186646,657.012451 1153.155640,656.980347 
	C1172.696045,656.333130 1192.240234,655.772827 1211.772217,654.928894 
	C1219.160889,654.609558 1226.557617,653.890503 1233.885376,652.880127 
	C1246.677002,651.116272 1259.486206,649.341980 1272.163330,646.919800 
	C1288.496582,643.799133 1304.854004,640.601196 1320.936157,636.417908 
	C1344.935547,630.175110 1368.404175,622.075012 1390.837036,611.473694 
	C1405.156128,604.706848 1419.101685,597.030640 1432.721924,588.933167 
	C1450.062744,578.623840 1466.403442,566.704834 1480.766724,552.506104 
	C1492.036865,541.364868 1502.842163,529.642151 1512.803589,517.328186 
	C1519.197876,509.424042 1525.300903,500.562042 1528.718384,491.111115 
	C1537.918579,465.669159 1540.882812,438.865326 1541.833374,411.956909 
	C1542.198120,401.627289 1540.669922,391.231354 1540.013794,380.865021 
	C1538.786743,361.478455 1534.067993,342.798615 1528.080078,324.449829 
	C1521.532715,304.386749 1512.671631,285.370972 1502.148560,267.006561 
	C1488.383423,242.984344 1471.650146,221.197769 1453.119873,200.880234 
	C1434.699219,180.682800 1414.889771,161.706543 1393.231934,144.969955 
	C1374.899658,130.803146 1356.146118,117.057243 1336.691772,104.499504 
	C1314.195801,89.978455 1291.289551,75.879463 1267.537598,63.573162 
	C1239.548462,49.071426 1210.489380,36.628128 1181.824707,23.443651 
	C1176.929077,21.191879 1171.684692,19.698212 1166.601318,17.854334 
	C1173.654785,25.328281 1181.442505,31.628622 1188.807861,38.389034 
	C1204.297852,52.606586 1219.938354,66.692535 1234.816162,81.534950 
	C1248.513794,95.199791 1261.438354,109.653671 1274.423096,124.013443 
	C1282.134033,132.541046 1289.948486,141.101822 1296.572388,150.457581 
	C1307.968750,166.553497 1319.150146,182.880112 1329.191650,199.838333 
	C1344.744141,226.103592 1355.131104,254.118866 1354.081421,285.419617 
	C1353.684814,297.247101 1350.995728,308.398804 1346.373047,319.155670 
	C1337.728149,339.272552 1323.099121,354.478058 1305.463135,366.695892 
	C1279.702637,384.542206 1250.972656,396.261810 1220.735352,403.818817 
	C1199.403931,409.150055 1177.741943,413.410522 1156.023193,416.863556 
	C1137.240479,419.849823 1118.173828,421.065521 1099.224121,422.978027 
	C1092.909058,423.615326 1086.567261,423.986725 1079.628784,424.527100 
	C1086.510864,435.093323 1090.469360,446.203278 1091.815063,457.537994 
	C1083.930908,450.709930 1076.502808,443.156799 1067.999023,437.118286 
	C1040.528320,417.610962 1008.920105,407.475647 976.772522,399.229645 
	C959.418945,394.778381 941.595703,392.097626 923.920227,388.982239 
	C910.886292,386.684967 897.789001,384.629974 884.646301,383.098602 
	C869.787476,381.367218 854.865112,380.051849 839.935913,379.088715 
	C824.088440,378.066315 808.205750,377.377869 792.328613,377.100067 
	C781.401306,376.908936 770.453918,377.579987 759.521790,378.020233 
	C745.148315,378.599060 730.756470,379.003387 716.417175,380.078308 
	C698.883423,381.392731 681.368530,383.082336 663.896912,385.063324 
	C649.263367,386.722565 634.573242,388.368652 620.139343,391.199066 
	C592.795410,396.561035 565.669983,402.921417 539.549255,412.965332 
	C513.176147,423.106201 488.375092,435.615753 469.293304,457.308716 
z"/>
<path fill="#ED1C24" opacity="1.000000" stroke="none" 
	d="
M392.671143,19.694305 
	C381.459198,29.627207 370.205963,39.514015 359.053101,49.512814 
	C353.631775,54.373184 348.280731,59.324074 343.103058,64.441597 
	C330.662537,76.737556 318.044128,88.873894 306.043518,101.589951 
	C286.995483,121.773628 268.722687,142.617264 252.749466,165.430511 
	C242.419220,180.184387 232.780594,195.242798 224.805038,211.424515 
	C215.862122,229.568954 209.186478,248.195496 206.788239,268.496887 
	C204.351181,289.126892 207.644562,308.488831 217.373077,326.506775 
	C227.343842,344.973297 242.687637,358.574646 260.072540,370.037628 
	C276.551056,380.903015 294.430298,388.706909 312.885345,395.488495 
	C335.447266,403.779205 358.719635,409.347931 382.238525,413.798981 
	C397.008911,416.594360 412.018188,418.215790 426.969086,419.940979 
	C438.726807,421.297699 450.558746,422.012482 462.358612,423.001923 
	C468.278656,423.498383 474.200684,423.971375 480.623718,424.495941 
	C475.076904,434.336426 469.718170,444.396851 468.684601,456.619324 
	C468.340668,457.607452 468.292847,458.050964 468.245026,458.494507 
	C468.720337,458.228424 469.195648,457.962341 469.670959,457.696228 
	C488.375092,435.615753 513.176147,423.106201 539.549255,412.965332 
	C565.669983,402.921417 592.795410,396.561035 620.139343,391.199066 
	C634.573242,388.368652 649.263367,386.722565 663.896912,385.063324 
	C681.368530,383.082336 698.883423,381.392731 716.417175,380.078308 
	C730.756470,379.003387 745.148315,378.599060 759.521790,378.020233 
	C770.453918,377.579987 781.401306,376.908936 792.328613,377.100067 
	C808.205750,377.377869 824.088440,378.066315 839.935913,379.088715 
	C854.865112,380.051849 869.787476,381.367218 884.646301,383.098602 
	C897.789001,384.629974 910.886292,386.684967 923.920227,388.982239 
	C941.595703,392.097626 959.418945,394.778381 976.772522,399.229645 
	C1008.920105,407.475647 1040.528320,417.610962 1067.999023,437.118286 
	C1076.502808,443.156799 1083.930908,450.709930 1091.815063,457.537994 
	C1090.469360,446.203278 1086.510864,435.093323 1079.628784,424.527100 
	C1086.567261,423.986725 1092.909058,423.615326 1099.224121,422.978027 
	C1118.173828,421.065521 1137.240479,419.849823 1156.023193,416.863556 
	C1177.741943,413.410522 1199.403931,409.150055 1220.735352,403.818817 
	C1250.972656,396.261810 1279.702637,384.542206 1305.463135,366.695892 
	C1323.099121,354.478058 1337.728149,339.272552 1346.373047,319.155670 
	C1350.995728,308.398804 1353.684814,297.247101 1354.081421,285.419617 
	C1355.131104,254.118866 1344.744141,226.103592 1329.191650,199.838333 
	C1319.150146,182.880112 1307.968750,166.553497 1296.572388,150.457581 
	C1289.948486,141.101822 1282.134033,132.541046 1274.423096,124.013443 
	C1261.438354,109.653671 1248.513794,95.199791 1234.816162,81.534950 
	C1219.938354,66.692535 1204.297852,52.606586 1188.807861,38.389034 
	C1181.442505,31.628622 1173.654785,25.328281 1166.601318,17.854334 
	C1171.684692,19.698212 1176.929077,21.191879 1181.824707,23.443651 
	C1210.489380,36.628128 1239.548462,49.071426 1267.537598,63.573162 
	C1291.289551,75.879463 1314.195801,89.978455 1336.691772,104.499504 
	C1356.146118,117.057243 1374.899658,130.803146 1393.231934,144.969955 
	C1414.889771,161.706543 1434.699219,180.682800 1453.119873,200.880234 
	C1471.650146,221.197769 1488.383423,242.984344 1502.148560,267.006561 
	C1512.671631,285.370972 1521.532715,304.386749 1528.080078,324.449829 
	C1534.067993,342.798615 1538.786743,361.478455 1540.013794,380.865021 
	C1540.669922,391.231354 1542.198120,401.627289 1541.833374,411.956909 
	C1540.882812,438.865326 1537.918579,465.669159 1528.718384,491.111115 
	C1525.300903,500.562042 1519.197876,509.424042 1512.803589,517.328186 
	C1502.842163,529.642151 1492.036865,541.364868 1480.766724,552.506104 
	C1466.403442,566.704834 1450.062744,578.623840 1432.721924,588.933167 
	C1419.101685,597.030640 1405.156128,604.706848 1390.837036,611.473694 
	C1368.404175,622.075012 1344.935547,630.175110 1320.936157,636.417908 
	C1304.854004,640.601196 1288.496582,643.799133 1272.163330,646.919800 
	C1259.486206,649.341980 1246.677002,651.116272 1233.885376,652.880127 
	C1226.557617,653.890503 1219.160889,654.609558 1211.772217,654.928894 
	C1192.240234,655.772827 1172.696045,656.333130 1153.155640,656.980347 
	C1152.186646,657.012451 1151.209473,656.798340 1151.220825,656.799500 
	C1151.822632,646.607117 1153.489868,636.558105 1152.734131,626.694763 
	C1151.726685,613.545959 1149.845703,600.279358 1146.537109,587.531250 
	C1140.213989,563.168335 1130.545410,539.963562 1118.841064,517.648071 
	C1118.473267,516.946777 1117.946655,516.328735 1116.628174,514.415161 
	C1118.402222,522.456787 1120.076538,529.012695 1121.265869,535.655518 
	C1123.654053,548.994080 1125.785034,562.378845 1128.008301,575.746887 
	C1131.614380,597.428406 1131.925293,619.352844 1130.778320,641.139771 
	C1129.146973,672.127441 1123.520142,702.397705 1110.135132,730.877563 
	C1102.405273,747.324890 1092.421265,762.125244 1080.627808,775.816711 
	C1079.543457,777.075500 1078.303345,778.205078 1077.084351,779.339661 
	C1076.758179,779.643127 1076.242798,779.743225 1075.011719,780.299072 
	C1078.567139,768.030090 1080.187622,756.243103 1076.296265,744.675903 
	C1065.067505,752.719360 1054.268188,760.926086 1042.998901,768.426636 
	C1021.570312,782.688843 998.567810,793.919312 974.495544,803.051086 
	C957.581238,809.467590 940.388123,815.397705 924.118958,823.209839 
	C897.944214,835.778564 879.669617,856.164001 869.961121,883.815796 
	C867.587769,890.575439 865.309875,897.368530 862.690552,904.655396 
	C862.343994,905.606079 862.294861,906.047607 862.245789,906.489197 
	C862.719360,906.223450 863.192871,905.957764 863.666504,905.692139 
	C872.633728,900.050964 881.287415,893.810181 890.645508,888.916382 
	C903.065308,882.421509 915.811829,876.420471 928.821838,871.216797 
	C947.176697,863.875305 966.600525,860.195435 985.824768,855.737793 
	C1009.467407,850.255737 1031.043457,840.073120 1047.739624,821.666443 
	C1054.697510,813.995789 1060.328491,805.356018 1063.824951,795.482849 
	C1064.351929,793.994934 1064.878052,792.506714 1065.472534,790.826477 
	C1079.529175,797.283752 1090.364258,807.317017 1099.629639,818.623718 
	C1107.861816,828.669617 1113.923340,840.465881 1121.728027,850.902527 
	C1125.584961,856.059998 1124.566772,861.186340 1123.843140,866.227539 
	C1121.593628,881.902222 1119.046021,897.552124 1115.987793,913.088440 
	C1111.266357,937.073853 1106.679443,961.118286 1100.830200,984.840454 
	C1094.390503,1010.957520 1086.474487,1036.713989 1074.008545,1060.751709 
	C1067.593018,1073.122803 1059.593506,1083.959229 1048.752441,1093.381226 
	C1036.180420,1104.307739 1025.053467,1117.157104 1014.627441,1130.231079 
	C999.399048,1149.327393 987.431458,1170.648682 977.138000,1192.775146 
	C963.700256,1221.660400 953.174255,1251.664062 946.145386,1282.736938 
	C941.431274,1303.576416 937.969666,1324.701050 934.063599,1345.719727 
	C933.405823,1349.259277 933.504395,1352.936035 932.916077,1356.493408 
	C932.672119,1357.968750 931.796204,1359.527588 930.775024,1360.657349 
	C920.722473,1371.779663 908.217712,1379.742065 895.261292,1386.820312 
	C878.317627,1396.076660 860.500183,1403.493896 841.437927,1407.175659 
	C829.100830,1409.558716 816.652649,1411.656738 804.155518,1412.836548 
	C792.457642,1413.940796 780.621521,1414.115112 768.860962,1413.898682 
	C749.627502,1413.544556 730.517456,1411.134277 712.165039,1405.384155 
	C697.592590,1400.818237 683.006775,1395.638794 669.424805,1388.761230 
	C656.997009,1382.467896 645.951965,1373.464111 634.210144,1365.788574 
	C627.162231,1361.181152 627.156433,1353.777100 625.968506,1346.685181 
	C623.163879,1329.942261 620.697937,1313.114624 617.076599,1296.543823 
	C613.254822,1279.056030 608.728455,1261.683838 603.602478,1244.532349 
	C599.974304,1232.392578 595.178711,1220.561646 590.301025,1208.843872 
	C580.293762,1184.803589 568.118835,1161.896484 553.186035,1140.501465 
	C542.520081,1125.219971 531.026855,1110.592041 517.291809,1097.971680 
	C509.069672,1090.416870 500.002808,1083.865112 493.961182,1074.113159 
	C484.958923,1059.582031 478.134857,1044.097290 472.499786,1028.019287 
	C461.697327,997.197571 453.817657,965.622253 447.975983,933.516785 
	C444.645905,915.214844 441.301971,896.915039 438.068146,878.596008 
	C437.186676,873.602478 436.876404,868.506653 435.960205,863.520996 
	C434.397644,855.018127 439.504059,848.836182 443.384674,842.439270 
	C451.067688,829.774353 459.749603,817.719360 470.860901,807.816833 
	C478.001160,801.453247 485.955841,796.003479 493.990662,789.800354 
	C496.681915,795.526978 498.761414,800.072937 500.941895,804.569946 
	C508.821014,820.820068 521.794922,832.015442 537.016113,841.040100 
	C555.029175,851.720093 575.240051,855.354858 595.200378,860.266357 
	C611.587585,864.298584 627.651917,869.976257 643.439026,876.022156 
	C659.785034,882.282227 675.312134,890.438293 689.533020,900.835876 
	C692.161194,902.757446 694.835510,904.615906 698.448242,907.186279 
	C696.076477,899.768860 694.338928,893.113525 691.833374,886.761108 
	C687.091492,874.739197 681.768982,863.036804 673.521118,852.798340 
	C664.170471,841.190979 653.114014,831.487915 639.822205,825.197388 
	C623.192078,817.326965 605.973389,810.619141 588.737671,804.129639 
	C566.350952,795.700623 544.759888,785.685852 524.578308,772.903870 
	C510.786804,764.169006 497.617035,754.452393 483.941711,745.017761 
	C480.420837,756.279236 481.510986,768.016479 485.519897,781.093079 
	C473.794708,770.073547 465.409729,758.533020 458.047607,746.195496 
	C445.160919,724.600037 437.878510,700.961121 433.337189,676.450317 
	C431.547485,666.790833 430.816681,656.907104 430.075134,647.089783 
	C429.389313,638.010437 428.685608,628.850952 429.142761,619.784851 
	C429.954315,603.690918 430.970947,587.550781 433.128540,571.595886 
	C435.744507,552.251465 439.632477,533.078979 442.890656,514.289734 
	C439.235443,521.875244 434.844177,529.906677 431.426025,538.332886 
	C426.165955,551.299683 421.177460,564.407104 416.805176,577.695496 
	C412.050629,592.145508 409.229736,607.004211 407.730255,622.258301 
	C406.564301,634.119507 407.883911,645.408997 410.254852,655.989319 
	C394.267181,655.989319 378.147095,656.506348 362.076691,655.834717 
	C347.811554,655.238647 333.502808,653.975037 319.390442,651.837036 
	C298.253265,648.634644 277.171021,644.885498 256.249023,640.494202 
	C231.490082,635.297607 207.418961,627.531311 184.028427,617.889832 
	C162.383392,608.967896 141.653473,598.211426 121.952454,585.478760 
	C100.690758,571.737366 81.142967,555.917419 63.983936,537.334656 
	C51.868931,524.214478 40.035988,510.545868 32.869350,494.044281 
	C28.571537,484.148346 26.565592,473.196594 24.063557,462.593414 
	C18.434212,438.737213 18.014940,414.382751 19.264254,390.134155 
	C19.992357,376.002045 22.844402,361.902924 25.644823,347.970642 
	C30.800179,322.322510 40.917690,298.407135 53.288654,275.496918 
	C63.392254,256.785767 74.832436,238.835556 88.849220,222.767838 
	C101.880226,207.830139 114.748940,192.633469 128.992706,178.903152 
	C144.120422,164.320770 160.358002,150.790009 176.894882,137.797852 
	C192.801636,125.300751 209.347260,113.523239 226.282425,102.455093 
	C243.079285,91.477356 260.518921,81.433708 278.036255,71.622459 
	C293.595459,62.907936 309.357605,54.441795 325.553711,47.006443 
	C347.154663,37.089821 369.262024,28.276325 391.724670,19.148815 
	C392.422028,19.437183 392.546600,19.565746 392.671143,19.694305 
M890.991455,550.992798 
	C890.994629,547.826477 890.941284,544.658936 891.012451,541.494141 
	C891.168335,534.556396 894.231262,530.960876 901.111633,530.026001 
	C906.279297,529.323853 911.495361,528.978271 916.593018,528.483398 
	C916.593018,524.612122 916.593018,520.897095 916.593018,517.299438 
	C878.588074,517.299438 840.990723,517.299438 803.351990,517.299438 
	C803.351990,521.336304 803.351990,525.066772 803.351990,528.768372 
	C816.821899,529.639282 829.919617,534.685547 837.157715,544.439270 
	C851.500366,563.766846 842.496094,593.452087 820.593933,599.974609 
	C813.463806,602.097961 805.916870,603.499146 798.498230,603.828918 
	C784.859009,604.435120 771.173462,604.010742 757.507263,603.988647 
	C756.078003,603.986328 754.648926,603.801025 752.995483,603.684875 
	C752.995483,601.445923 752.966492,599.627625 753.000000,597.810425 
	C753.327454,580.040771 753.846802,562.272156 753.935913,544.501404 
	C753.994873,532.734253 757.755249,529.054749 769.595154,529.004639 
	C774.683899,528.983154 779.772766,529.001099 784.697876,529.001099 
	C784.697876,524.585388 784.697876,520.982849 784.697876,517.371277 
	C747.343750,517.371277 710.292969,517.371277 673.266968,517.371277 
	C673.266968,521.346802 673.266968,524.948303 673.266968,529.001465 
	C677.314636,529.001465 681.112305,528.903076 684.903076,529.022339 
	C692.350647,529.256531 696.783997,532.196289 697.856628,537.936096 
	C698.547729,541.634705 698.942200,545.444458 698.952332,549.205750 
	C699.036377,580.371155 698.999573,611.536926 698.999451,642.702576 
	C698.999390,661.035339 699.357117,679.377502 698.871948,697.697388 
	C698.558960,709.515076 697.107239,715.247131 681.555969,715.006104 
	C678.791931,714.963257 676.026672,715.000000 673.247681,715.000000 
	C673.247681,719.308105 673.247681,722.907288 673.247681,726.681763 
	C710.546326,726.681763 747.596802,726.681763 784.607178,726.681763 
	C784.607178,722.639648 784.607178,718.924866 784.607178,714.998291 
	C778.559509,714.998291 772.900879,715.104248 767.247742,714.973145 
	C759.018677,714.782349 754.720215,711.313599 754.061157,704.095581 
	C753.490479,697.844421 753.096924,691.557495 753.042053,685.282715 
	C752.902222,669.284485 752.995544,653.284180 752.995544,637.284729 
	C752.995544,631.999207 752.995483,626.713745 752.995483,621.289917 
	C754.111206,621.159851 754.743713,621.012573 755.373474,621.023438 
	C773.473267,621.338135 791.574707,621.585449 809.671509,622.027466 
	C820.689087,622.296570 830.525818,626.177551 838.784180,633.364502 
	C862.900879,654.352722 857.935425,694.868286 829.177490,708.722839 
	C820.991638,712.666504 811.555969,714.016052 802.367676,716.648560 
	C802.367676,719.306885 802.367676,723.023193 802.367676,726.739502 
	C840.666565,726.739502 878.597107,726.739502 916.667908,726.739502 
	C916.667908,722.757935 916.667908,719.043518 916.667908,714.999023 
	C912.531006,714.999023 908.718201,715.118835 904.915344,714.974976 
	C896.086426,714.641052 891.205383,710.259033 891.013000,702.588257 
	C890.925232,699.090454 890.969238,695.589355 890.974487,691.142273 
	C890.967407,644.731750 890.960327,598.321228 890.991455,550.992798 
M680.885010,1278.617676 
	C681.841125,1277.993408 682.853455,1277.439941 683.745056,1276.734253 
	C700.332336,1263.604370 700.695251,1233.950562 685.551758,1219.732666 
	C676.066040,1210.826904 661.048401,1212.724731 654.141846,1222.716553 
	C644.045105,1237.323608 642.933594,1252.625977 651.746277,1268.360840 
	C658.011780,1279.547729 669.635376,1284.459717 680.885010,1278.617676 
M864.869263,1255.523438 
	C865.651245,1258.507568 866.057739,1261.657227 867.285583,1264.444946 
	C870.942871,1272.748657 876.546326,1279.416748 885.967346,1280.875854 
	C896.114380,1282.447632 903.372986,1277.232666 908.472656,1268.939453 
	C916.678528,1255.594727 916.570862,1237.364136 907.419067,1224.221191 
	C897.437134,1209.885864 880.157471,1210.139282 870.631042,1224.699951 
	C864.553955,1233.988647 863.088623,1244.074707 864.869263,1255.523438 
z"/>
<path fill="#ED1C24" opacity="1.000000" stroke="none" 
	d="
M392.112610,19.113918 
	C392.429688,18.684603 392.931641,18.449989 393.433594,18.215374 
	C393.322235,18.583731 393.210876,18.952087 392.885345,19.507378 
	C392.546600,19.565746 392.422028,19.437183 392.112610,19.113918 
z"/>
<path fill="none" opacity="1.000000" stroke="none" 
	d="
M890.953491,692.089722 
	C890.969238,695.589355 890.925232,699.090454 891.013000,702.588257 
	C891.205383,710.259033 896.086426,714.641052 904.915344,714.974976 
	C908.718201,715.118835 912.531006,714.999023 916.667908,714.999023 
	C916.667908,719.043518 916.667908,722.757935 916.667908,726.739502 
	C878.597107,726.739502 840.666565,726.739502 802.367676,726.739502 
	C802.367676,723.023193 802.367676,719.306885 802.367676,716.648560 
	C811.555969,714.016052 820.991638,712.666504 829.177490,708.722839 
	C857.935425,694.868286 862.900879,654.352722 838.784180,633.364502 
	C830.525818,626.177551 820.689087,622.296570 809.671509,622.027466 
	C791.574707,621.585449 773.473267,621.338135 755.373474,621.023438 
	C754.743713,621.012573 754.111206,621.159851 752.995483,621.289917 
	C752.995483,626.713745 752.995544,631.999207 752.995544,637.284729 
	C752.995544,653.284180 752.902222,669.284485 753.042053,685.282715 
	C753.096924,691.557495 753.490479,697.844421 754.061157,704.095581 
	C754.720215,711.313599 759.018677,714.782349 767.247742,714.973145 
	C772.900879,715.104248 778.559509,714.998291 784.607178,714.998291 
	C784.607178,718.924866 784.607178,722.639648 784.607178,726.681763 
	C747.596802,726.681763 710.546326,726.681763 673.247681,726.681763 
	C673.247681,722.907288 673.247681,719.308105 673.247681,715.000000 
	C676.026672,715.000000 678.791931,714.963257 681.555969,715.006104 
	C697.107239,715.247131 698.558960,709.515076 698.871948,697.697388 
	C699.357117,679.377502 698.999390,661.035339 698.999451,642.702576 
	C698.999573,611.536926 699.036377,580.371155 698.952332,549.205750 
	C698.942200,545.444458 698.547729,541.634705 697.856628,537.936096 
	C696.783997,532.196289 692.350647,529.256531 684.903076,529.022339 
	C681.112305,528.903076 677.314636,529.001465 673.266968,529.001465 
	C673.266968,524.948303 673.266968,521.346802 673.266968,517.371277 
	C710.292969,517.371277 747.343750,517.371277 784.697876,517.371277 
	C784.697876,520.982849 784.697876,524.585388 784.697876,529.001099 
	C779.772766,529.001099 774.683899,528.983154 769.595154,529.004639 
	C757.755249,529.054749 753.994873,532.734253 753.935913,544.501404 
	C753.846802,562.272156 753.327454,580.040771 753.000000,597.810425 
	C752.966492,599.627625 752.995483,601.445923 752.995483,603.684875 
	C754.648926,603.801025 756.078003,603.986328 757.507263,603.988647 
	C771.173462,604.010742 784.859009,604.435120 798.498230,603.828918 
	C805.916870,603.499146 813.463806,602.097961 820.593933,599.974609 
	C842.496094,593.452087 851.500366,563.766846 837.157715,544.439270 
	C829.919617,534.685547 816.821899,529.639282 803.351990,528.768372 
	C803.351990,525.066772 803.351990,521.336304 803.351990,517.299438 
	C840.990723,517.299438 878.588074,517.299438 916.593018,517.299438 
	C916.593018,520.897095 916.593018,524.612122 916.593018,528.483398 
	C911.495361,528.978271 906.279297,529.323853 901.111633,530.026001 
	C894.231262,530.960876 891.168335,534.556396 891.012451,541.494141 
	C890.941284,544.658936 890.994629,547.826477 890.609009,551.694092 
	C890.152527,553.053162 890.013794,553.710876 890.013611,554.368652 
	C890.002197,599.082642 889.994385,643.796631 890.040344,688.510559 
	C890.041565,689.703979 890.635803,690.896667 890.953491,692.089722 
z"/>
<path fill="none" opacity="1.000000" stroke="none" 
	d="
M680.531799,1278.781738 
	C669.635376,1284.459717 658.011780,1279.547729 651.746277,1268.360840 
	C642.933594,1252.625977 644.045105,1237.323608 654.141846,1222.716553 
	C661.048401,1212.724731 676.066040,1210.826904 685.551758,1219.732666 
	C700.695251,1233.950562 700.332336,1263.604370 683.745056,1276.734253 
	C682.853455,1277.439941 681.841125,1277.993408 680.531799,1278.781738 
z"/>
<path fill="none" opacity="1.000000" stroke="none" 
	d="
M864.606750,1255.166870 
	C863.088623,1244.074707 864.553955,1233.988647 870.631042,1224.699951 
	C880.157471,1210.139282 897.437134,1209.885864 907.419067,1224.221191 
	C916.570862,1237.364136 916.678528,1255.594727 908.472656,1268.939453 
	C903.372986,1277.232666 896.114380,1282.447632 885.967346,1280.875854 
	C876.546326,1279.416748 870.942871,1272.748657 867.285583,1264.444946 
	C866.057739,1261.657227 865.651245,1258.507568 864.606750,1255.166870 
z"/>
<path fill="#FF3333" opacity="1.000000" stroke="none" 
	d="
M890.963989,691.615967 
	C890.635803,690.896667 890.041565,689.703979 890.040344,688.510559 
	C889.994385,643.796631 890.002197,599.082642 890.013611,554.368652 
	C890.013794,553.710876 890.152527,553.053162 890.589844,552.153076 
	C890.960327,598.321228 890.967407,644.731750 890.963989,691.615967 
z"/>
<path fill="none" opacity="1.000000" stroke="none" 
	d="
M469.482117,457.502502 
	C469.195648,457.962341 468.720337,458.228424 468.245026,458.494507 
	C468.292847,458.050964 468.340668,457.607452 468.649933,457.044678 
	C469.038666,457.053192 469.165985,457.180939 469.482117,457.502502 
z"/>
<path fill="none" opacity="1.000000" stroke="none" 
	d="
M863.480103,905.500122 
	C863.192871,905.957764 862.719360,906.223450 862.245789,906.489197 
	C862.294861,906.047607 862.343994,905.606079 862.654480,905.046936 
	C863.041809,905.055603 863.167786,905.181885 863.480103,905.500122 
z"/>
</svg>
