<svg version="1.1" id="Layer_1" xmlns="http://www.w3.org/2000/svg" xmlns:xlink="http://www.w3.org/1999/xlink" x="0px" y="0px"
	 width="100%" viewBox="0 0 1807 1623" enable-background="new 0 0 1807 1623" xml:space="preserve">
<path fill="none" opacity="1.000000" stroke="none"
	d="
M1.000000,556.000000
	C1.000000,370.666687 1.000000,185.833374 1.000000,1.000050
	C603.333252,1.000033 1205.666504,1.000033 1807.999756,1.000017
	C1807.999878,541.999817 1807.999878,1082.999634 1808.000000,1623.999634
	C1205.666870,1623.999756 603.333801,1623.999756 1.000345,1623.999878
	C1.000000,1268.166626 1.000000,912.333313 1.000000,556.000000
M223.996689,618.847168
	C224.045547,621.571655 224.094406,624.296204 224.024002,627.948181
	C224.069901,633.955261 224.115784,639.962341 224.029831,646.902527
	C224.353180,659.739075 224.972427,672.575928 224.955719,685.412048
	C224.684921,893.380127 224.312317,1101.348145 224.034470,1309.316162
	C224.008148,1329.014648 224.086899,1348.697876 220.997360,1368.223511
	C218.726303,1382.576416 217.205383,1397.116333 213.835266,1411.210815
	C208.984329,1431.498413 195.648361,1444.964355 176.099594,1451.969238
	C156.303329,1459.062622 135.566116,1461.231201 114.752083,1461.869385
	C94.937424,1462.476685 75.089523,1462.017944 55.256283,1461.992065
	C46.439846,1461.980469 44.169224,1463.932129 44.075951,1473.432983
	C44.011200,1480.028687 44.905193,1486.629761 44.954113,1493.231445
	C45.087494,1511.230469 44.999836,1529.230957 44.999760,1547.230957
	C44.999752,1549.009766 44.999760,1550.788452 44.999760,1552.646484
	C308.942841,1552.646484 572.323608,1552.646484 835.750061,1552.646484
	C835.750061,1521.695435 835.750061,1491.098511 835.750061,1459.999878
	C834.237976,1459.999878 832.942871,1459.982788 831.648376,1460.002441
	C810.044861,1460.331665 788.442078,1460.840942 766.837585,1460.929199
	C754.734253,1460.978760 742.624512,1460.427246 730.524048,1459.975586
	C715.322327,1459.408081 700.032715,1459.470825 684.963257,1457.706055
	C675.413452,1456.587769 665.661987,1453.780273 656.939758,1449.715698
	C638.661560,1441.198242 628.305847,1425.531006 624.211182,1406.272461
	C621.190186,1392.063965 619.476501,1377.512329 618.153625,1363.024658
	C616.563354,1345.607544 615.155701,1328.097412 615.132019,1310.625610
	C614.909546,1146.293091 614.999878,981.960144 614.999878,817.627319
	C614.999878,815.862122 614.999817,814.096924 614.999817,812.181335
	C616.626953,812.098999 617.603027,812.012024 618.579651,812.005615
	C670.349609,811.666138 722.119385,811.244507 773.889893,811.058411
	C787.992065,811.007690 802.095947,811.908630 816.200439,811.956116
	C855.366516,812.088074 894.534790,811.804260 933.699219,812.090637
	C950.910095,812.216492 968.132812,813.019287 985.314453,814.088928
	C998.908936,814.935242 1012.489624,816.342529 1026.001099,818.084229
	C1038.468628,819.691345 1050.985107,821.426819 1063.219116,824.240601
	C1097.292358,832.077271 1129.698608,844.408813 1160.011597,862.002258
	C1177.910156,872.390564 1194.855957,884.259583 1209.730225,898.555115
	C1223.546143,911.833557 1236.315796,926.248657 1248.993896,940.649353
	C1261.460938,954.810181 1271.186157,970.940491 1280.151978,987.502258
	C1290.290894,1006.230530 1298.184814,1025.865967 1303.997437,1046.356689
	C1310.511353,1069.318848 1313.902588,1092.785522 1314.878906,1116.565552
	C1315.278809,1126.306152 1314.756714,1136.138794 1313.905396,1145.864014
	C1312.618774,1160.562134 1311.215454,1175.288696 1308.896973,1189.849609
	C1304.521729,1217.328369 1296.597412,1243.887695 1285.205444,1269.270264
	C1269.497437,1304.269165 1248.385498,1335.528564 1220.489746,1362.199707
	C1205.220581,1376.798706 1188.866333,1389.822388 1171.193481,1401.285156
	C1149.022949,1415.665161 1125.313843,1427.000000 1100.762817,1436.619873
	C1065.659912,1450.374390 1029.107666,1457.820068 991.644348,1460.899780
	C980.424988,1461.821899 969.117493,1461.691895 957.848938,1461.988159
	C951.914368,1462.144165 948.933105,1464.884399 949.048706,1470.777222
	C949.158752,1476.382690 949.956482,1481.981934 949.927124,1487.581177
	C949.889832,1494.682861 949.156311,1501.778687 949.026184,1508.882568
	C948.858398,1518.045898 948.991394,1527.214722 948.993591,1536.381104
	C948.994934,1541.813354 948.993896,1547.245605 948.993896,1552.595703
	C1221.044922,1552.595703 1492.426025,1552.595703 1764.000732,1552.595703
	C1764.000732,1524.698364 1764.003662,1497.204956 1763.993652,1469.711670
	C1763.993042,1468.050781 1764.128418,1466.338745 1763.784180,1464.739990
	C1763.118530,1461.647095 1761.848145,1459.228760 1757.814819,1459.945068
	C1754.426514,1460.546753 1750.954468,1460.930908 1747.516235,1460.954224
	C1732.141479,1461.058350 1716.764526,1461.106201 1701.390625,1460.953979
	C1693.454590,1460.875366 1685.519653,1460.401855 1677.590332,1459.992065
	C1661.685425,1459.169800 1646.075928,1456.764404 1630.776123,1452.100708
	C1607.573608,1445.028320 1592.190308,1429.928589 1587.350586,1406.422485
	C1583.134644,1385.946533 1581.115723,1364.954468 1579.195312,1344.092041
	C1577.859619,1329.581055 1578.044922,1314.903320 1578.042480,1300.300171
	C1577.987061,971.634521 1577.992188,642.968933 1578.041626,314.303284
	C1578.042969,305.369202 1578.485107,296.424194 1579.035889,287.503693
	C1579.878418,273.856934 1581.081909,260.232727 1581.970825,246.588455
	C1582.816162,233.613861 1585.095093,220.934067 1590.119629,208.925629
	C1596.333008,194.076172 1606.894775,183.435593 1621.772949,176.925629
	C1641.794556,168.165192 1663.241455,167.981506 1684.392822,166.075592
	C1693.123413,165.288895 1701.927124,165.269302 1710.701172,165.019211
	C1724.466309,164.626846 1738.233032,164.243423 1752.001953,164.063721
	C1755.507080,164.017990 1759.022339,164.753922 1762.625366,165.140625
	C1762.625366,134.020691 1762.625366,103.635880 1762.625366,73.270523
	C1492.654419,73.270523 1223.058228,73.270523 953.278076,73.270523
	C953.278076,103.289291 953.278076,133.037064 953.278076,162.670654
	C954.984253,163.163651 956.379578,163.812119 957.822632,163.945999
	C972.889893,165.343948 987.992798,166.407043 1003.028809,168.076782
	C1015.219971,169.430603 1027.491699,170.761002 1039.449463,173.375015
	C1067.838867,179.581085 1094.773438,189.823471 1119.987793,204.457047
	C1146.024536,219.567963 1168.793823,238.609711 1188.017578,261.689972
	C1202.733765,279.358398 1214.329102,299.013733 1223.713379,320.104126
	C1235.286743,346.114532 1241.864502,373.389099 1243.647461,401.512421
	C1244.804443,419.763336 1243.848633,438.372009 1241.648438,456.555237
	C1238.904907,479.227936 1232.520630,501.159546 1223.421143,522.328247
	C1212.074951,548.723511 1196.233643,571.977783 1176.616089,592.712585
	C1169.597290,600.131287 1161.708618,606.755920 1153.970337,613.458191
	C1140.185425,625.397705 1125.022827,635.395935 1108.960327,643.970825
	C1081.965088,658.382080 1053.424438,668.558960 1023.106018,672.941528
	C1004.437012,675.640198 985.585571,678.648315 966.803284,678.734558
	C851.472778,679.264404 736.138550,679.000183 620.805603,679.000305
	C619.023254,679.000305 617.240906,679.000305 614.999817,679.000305
	C614.999817,676.346741 614.993591,674.222229 615.000671,672.097778
	C615.342529,570.330688 615.567444,468.562958 616.096252,366.796844
	C616.267029,333.926758 614.328735,301.003479 617.994141,268.195740
	C619.688354,253.031723 620.681641,237.751770 623.214783,222.730453
	C625.439697,209.536926 630.985291,197.396301 640.772400,187.786285
	C650.808228,177.931992 663.816711,173.885849 676.855469,170.004059
	C695.343933,164.499817 714.501160,166.088287 733.349915,165.242462
	C756.137268,164.219894 779.005615,164.998901 801.838867,165.002930
	C803.171448,165.003174 804.505432,165.014725 805.836426,165.073410
	C815.717712,165.508957 825.598389,165.957809 835.675537,166.411316
	C835.675537,134.448563 835.675537,103.400436 835.675537,72.398460
	C571.969421,72.398460 308.588562,72.398460 45.294651,72.398460
	C45.294651,102.726982 45.294651,132.657532 45.294651,162.498199
	C54.655579,163.010101 63.712303,163.654907 72.780487,163.971497
	C94.481400,164.729141 116.211617,164.919876 137.881424,166.177002
	C148.250076,166.778534 158.696869,168.535492 168.778244,171.077774
	C191.333405,176.765656 206.953461,191.000351 213.805573,213.182800
	C217.580597,225.403748 219.608826,238.366287 220.773376,251.144958
	C222.587280,271.048615 223.783768,291.077179 223.862610,311.058258
	C224.190033,394.056671 223.989532,477.057159 224.009262,560.056885
	C224.013779,579.052490 224.123474,598.048157 224.057144,617.491760
	C224.057144,617.491760 224.145966,617.949036 223.996689,618.847168
z"/>
<path fill="currentColor" opacity="1.000000" stroke="none"
	d="
M224.143250,627.020691
	C224.094406,624.296204 224.045547,621.571655 224.089447,618.285400
	C224.217850,617.498535 224.218704,617.271912 224.184769,617.043762
	C224.123474,598.048157 224.013779,579.052490 224.009262,560.056885
	C223.989532,477.057159 224.190033,394.056671 223.862610,311.058258
	C223.783768,291.077179 222.587280,271.048615 220.773376,251.144958
	C219.608826,238.366287 217.580597,225.403748 213.805573,213.182800
	C206.953461,191.000351 191.333405,176.765656 168.778244,171.077774
	C158.696869,168.535492 148.250076,166.778534 137.881424,166.177002
	C116.211617,164.919876 94.481400,164.729141 72.780487,163.971497
	C63.712303,163.654907 54.655579,163.010101 45.294651,162.498199
	C45.294651,132.657532 45.294651,102.726982 45.294651,72.398460
	C308.588562,72.398460 571.969421,72.398460 835.675537,72.398460
	C835.675537,103.400436 835.675537,134.448563 835.675537,166.411316
	C825.598389,165.957809 815.717712,165.508957 805.836426,165.073410
	C804.505432,165.014725 803.171448,165.003174 801.838867,165.002930
	C779.005615,164.998901 756.137268,164.219894 733.349915,165.242462
	C714.501160,166.088287 695.343933,164.499817 676.855469,170.004059
	C663.816711,173.885849 650.808228,177.931992 640.772400,187.786285
	C630.985291,197.396301 625.439697,209.536926 623.214783,222.730453
	C620.681641,237.751770 619.688354,253.031723 617.994141,268.195740
	C614.328735,301.003479 616.267029,333.926758 616.096252,366.796844
	C615.567444,468.562958 615.342529,570.330688 615.000671,672.097778
	C614.993591,674.222229 614.999817,676.346741 614.999817,679.000305
	C617.240906,679.000305 619.023254,679.000305 620.805603,679.000305
	C736.138550,679.000183 851.472778,679.264404 966.803284,678.734558
	C985.585571,678.648315 1004.437012,675.640198 1023.106018,672.941528
	C1053.424438,668.558960 1081.965088,658.382080 1108.960327,643.970825
	C1125.022827,635.395935 1140.185425,625.397705 1153.970337,613.458191
	C1161.708618,606.755920 1169.597290,600.131287 1176.616089,592.712585
	C1196.233643,571.977783 1212.074951,548.723511 1223.421143,522.328247
	C1232.520630,501.159546 1238.904907,479.227936 1241.648438,456.555237
	C1243.848633,438.372009 1244.804443,419.763336 1243.647461,401.512421
	C1241.864502,373.389099 1235.286743,346.114532 1223.713379,320.104126
	C1214.329102,299.013733 1202.733765,279.358398 1188.017578,261.689972
	C1168.793823,238.609711 1146.024536,219.567963 1119.987793,204.457047
	C1094.773438,189.823471 1067.838867,179.581085 1039.449463,173.375015
	C1027.491699,170.761002 1015.219971,169.430603 1003.028809,168.076782
	C987.992798,166.407043 972.889893,165.343948 957.822632,163.945999
	C956.379578,163.812119 954.984253,163.163651 953.278076,162.670654
	C953.278076,133.037064 953.278076,103.289291 953.278076,73.270523
	C1223.058228,73.270523 1492.654419,73.270523 1762.625366,73.270523
	C1762.625366,103.635880 1762.625366,134.020691 1762.625366,165.140625
	C1759.022339,164.753922 1755.507080,164.017990 1752.001953,164.063721
	C1738.233032,164.243423 1724.466309,164.626846 1710.701172,165.019211
	C1701.927124,165.269302 1693.123413,165.288895 1684.392822,166.075592
	C1663.241455,167.981506 1641.794556,168.165192 1621.772949,176.925629
	C1606.894775,183.435593 1596.333008,194.076172 1590.119629,208.925629
	C1585.095093,220.934067 1582.816162,233.613861 1581.970825,246.588455
	C1581.081909,260.232727 1579.878418,273.856934 1579.035889,287.503693
	C1578.485107,296.424194 1578.042969,305.369202 1578.041626,314.303284
	C1577.992188,642.968933 1577.987061,971.634521 1578.042480,1300.300171
	C1578.044922,1314.903320 1577.859619,1329.581055 1579.195312,1344.092041
	C1581.115723,1364.954468 1583.134644,1385.946533 1587.350586,1406.422485
	C1592.190308,1429.928589 1607.573608,1445.028320 1630.776123,1452.100708
	C1646.075928,1456.764404 1661.685425,1459.169800 1677.590332,1459.992065
	C1685.519653,1460.401855 1693.454590,1460.875366 1701.390625,1460.953979
	C1716.764526,1461.106201 1732.141479,1461.058350 1747.516235,1460.954224
	C1750.954468,1460.930908 1754.426514,1460.546753 1757.814819,1459.945068
	C1761.848145,1459.228760 1763.118530,1461.647095 1763.784180,1464.739990
	C1764.128418,1466.338745 1763.993042,1468.050781 1763.993652,1469.711670
	C1764.003662,1497.204956 1764.000732,1524.698364 1764.000732,1552.595703
	C1492.426025,1552.595703 1221.044922,1552.595703 948.993896,1552.595703
	C948.993896,1547.245605 948.994934,1541.813354 948.993591,1536.381104
	C948.991394,1527.214722 948.858398,1518.045898 949.026184,1508.882568
	C949.156311,1501.778687 949.889832,1494.682861 949.927124,1487.581177
	C949.956482,1481.981934 949.158752,1476.382690 949.048706,1470.777222
	C948.933105,1464.884399 951.914368,1462.144165 957.848938,1461.988159
	C969.117493,1461.691895 980.424988,1461.821899 991.644348,1460.899780
	C1029.107666,1457.820068 1065.659912,1450.374390 1100.762817,1436.619873
	C1125.313843,1427.000000 1149.022949,1415.665161 1171.193481,1401.285156
	C1188.866333,1389.822388 1205.220581,1376.798706 1220.489746,1362.199707
	C1248.385498,1335.528564 1269.497437,1304.269165 1285.205444,1269.270264
	C1296.597412,1243.887695 1304.521729,1217.328369 1308.896973,1189.849609
	C1311.215454,1175.288696 1312.618774,1160.562134 1313.905396,1145.864014
	C1314.756714,1136.138794 1315.278809,1126.306152 1314.878906,1116.565552
	C1313.902588,1092.785522 1310.511353,1069.318848 1303.997437,1046.356689
	C1298.184814,1025.865967 1290.290894,1006.230530 1280.151978,987.502258
	C1271.186157,970.940491 1261.460938,954.810181 1248.993896,940.649353
	C1236.315796,926.248657 1223.546143,911.833557 1209.730225,898.555115
	C1194.855957,884.259583 1177.910156,872.390564 1160.011597,862.002258
	C1129.698608,844.408813 1097.292358,832.077271 1063.219116,824.240601
	C1050.985107,821.426819 1038.468628,819.691345 1026.001099,818.084229
	C1012.489624,816.342529 998.908936,814.935242 985.314453,814.088928
	C968.132812,813.019287 950.910095,812.216492 933.699219,812.090637
	C894.534790,811.804260 855.366516,812.088074 816.200439,811.956116
	C802.095947,811.908630 787.992065,811.007690 773.889893,811.058411
	C722.119385,811.244507 670.349609,811.666138 618.579651,812.005615
	C617.603027,812.012024 616.626953,812.098999 614.999817,812.181335
	C614.999817,814.096924 614.999878,815.862122 614.999878,817.627319
	C614.999878,981.960144 614.909546,1146.293091 615.132019,1310.625610
	C615.155701,1328.097412 616.563354,1345.607544 618.153625,1363.024658
	C619.476501,1377.512329 621.190186,1392.063965 624.211182,1406.272461
	C628.305847,1425.531006 638.661560,1441.198242 656.939758,1449.715698
	C665.661987,1453.780273 675.413452,1456.587769 684.963257,1457.706055
	C700.032715,1459.470825 715.322327,1459.408081 730.524048,1459.975586
	C742.624512,1460.427246 754.734253,1460.978760 766.837585,1460.929199
	C788.442078,1460.840942 810.044861,1460.331665 831.648376,1460.002441
	C832.942871,1459.982788 834.237976,1459.999878 835.750061,1459.999878
	C835.750061,1491.098511 835.750061,1521.695435 835.750061,1552.646484
	C572.323608,1552.646484 308.942841,1552.646484 44.999760,1552.646484
	C44.999760,1550.788452 44.999752,1549.009766 44.999760,1547.230957
	C44.999836,1529.230957 45.087494,1511.230469 44.954113,1493.231445
	C44.905193,1486.629761 44.011200,1480.028687 44.075951,1473.432983
	C44.169224,1463.932129 46.439846,1461.980469 55.256283,1461.992065
	C75.089523,1462.017944 94.937424,1462.476685 114.752083,1461.869385
	C135.566116,1461.231201 156.303329,1459.062622 176.099594,1451.969238
	C195.648361,1444.964355 208.984329,1431.498413 213.835266,1411.210815
	C217.205383,1397.116333 218.726303,1382.576416 220.997360,1368.223511
	C224.086899,1348.697876 224.008148,1329.014648 224.034470,1309.316162
	C224.312317,1101.348145 224.684921,893.380127 224.955719,685.412048
	C224.972427,672.575928 224.353180,659.739075 224.258377,646.060547
	C224.372360,639.152649 224.257797,633.086670 224.143250,627.020691
z"/>
<path fill="currentColor" opacity="1.000000" stroke="none"
	d="
M224.083618,627.484436
	C224.257797,633.086670 224.372360,639.152649 224.324310,645.593994
	C224.115784,639.962341 224.069901,633.955261 224.083618,627.484436
z"/>
<path fill="currentColor" opacity="1.000000" stroke="none"
	d="
M224.120956,617.267761
	C224.218704,617.271912 224.217850,617.498535 224.164078,617.836304
	C224.145966,617.949036 224.057144,617.491760 224.120956,617.267761
z"/>
</svg>
